<?xml version="1.0" encoding="utf-8"?>
<!-- Generator: Adobe Illustrator 24.3.0, SVG Export Plug-In . SVG Version: 6.00 Build 0)  -->
<svg version="1.1" id="Layer_1" xmlns="http://www.w3.org/2000/svg" xmlns:xlink="http://www.w3.org/1999/xlink" x="0px" y="0px"
	 viewBox="0 0 29.2 29.2" style="enable-background:new 0 0 29.2 29.2;" xml:space="preserve">
<style type="text/css">
	.st0{fill:#F26636;}
	.st1{fill:#D7DF23;}
	.st2{fill:#F26522;}
	.st3{fill:#39B54A;}
</style>
<g>
	<rect x="1.4" y="1.4" transform="matrix(0.7071 0.7071 -0.7071 0.7071 4.895 -2.0276)" class="st0" width="6.9" height="6.9"/>
	<rect x="1.4" y="11.2" transform="matrix(0.7071 0.7071 -0.7071 0.7071 11.7916 0.8291)" class="st1" width="6.9" height="6.9"/>
	<rect x="1.4" y="20.9" transform="matrix(0.7071 0.7071 -0.7071 0.7071 18.6921 3.6873)" class="st2" width="6.9" height="6.9"/>
	<rect x="11.1" y="1.4" transform="matrix(0.7071 0.7071 -0.7071 0.7071 7.7288 -8.869)" class="st3" width="6.9" height="6.9"/>
	<rect x="11.1" y="20.9" transform="matrix(0.7071 0.7071 -0.7071 0.7071 21.4669 -3.1785)" class="st3" width="6.9" height="6.9"/>
	<rect x="20.8" y="1.4" transform="matrix(0.7071 0.7071 -0.7071 0.7071 10.5627 -15.7105)" class="st2" width="6.9" height="6.9"/>
	
		<rect x="20.8" y="11.2" transform="matrix(0.7071 0.7071 -0.7071 0.7071 17.4593 -12.8538)" class="st1" width="6.9" height="6.9"/>
	<rect x="20.8" y="20.9" transform="matrix(0.7071 0.7071 -0.7071 0.7071 24.3597 -9.9955)" class="st2" width="6.9" height="6.9"/>
</g>
</svg>
